# xmcd CD database file
#
# Track frame offsets:
#	150
#	14655
#	35892
#	49462
#	65847
#	80507
#	96302
#	119732
#	138795
#	150492
#	163365
#	179982
#	192737
#	205267
#	219415
#	243242
#	258612
#	278455
#	294660
#
# Disc length: 4698 seconds
#
# Revision: 11
# Processed by: cddbd v1.5.2PL0 Copyright (c) Steve Scherf et al.
# Submitted via: CDex 1.70beta2
#
DISCID=39125813
DTITLE=SUPERCAR - スリーアウトチェンジ
DYEAR=1998
DGENRE=Rock
TTITLE0=cream soda
TTITLE1=(Am I)confusing you?
TTITLE2=smart
TTITLE3=DRIVE
TTITLE4=Greenage
TTITLE5=u
TTITLE6=Automatic wing
TTITLE7=Lucky
TTITLE8=333
TTITLE9=TOP 10
TTITLE10=My Way
TTITLE11=Sea Girl
TTITLE12=Happy Talking
TTITLE13=Trash and Lemmon
TTITLE14=PLANET
TTITLE15=Yes,
TTITLE16=I need the sun
TTITLE17=Hello
TTITLE18=TRIP SKY
EXTD=YEAR: 1998
EXTT0=
EXTT1=
EXTT2=
EXTT3=
EXTT4=
EXTT5=
EXTT6=
EXTT7=
EXTT8=
EXTT9=
EXTT10=
EXTT11=
EXTT12=
EXTT13=
EXTT14=
EXTT15=
EXTT16=
EXTT17=
EXTT18=
PLAYORDER=
